<?xml version="1.0" standalone="no"?>
<!DOCTYPE svg PUBLIC "-//W3C//DTD SVG 20010904//EN"
 "http://www.w3.org/TR/2001/REC-SVG-20010904/DTD/svg10.dtd">
<svg version="1.0" xmlns="http://www.w3.org/2000/svg"
 width="700.000000pt" height="700.000000pt" viewBox="0 0 700.000000 700.000000"
 preserveAspectRatio="xMidYMid meet">
<metadata>
Created by potrace 1.11, written by Peter Selinger 2001-2013
</metadata>
<g transform="translate(0.000000,700.000000) scale(0.100000,-0.100000)"
fill="#000000" stroke="none">
<path d="M1772 5227 l-1773 -1773 3 -38 3 -37 1805 1806 c993 993 1807 1808
1809 1810 2 3 -13 5 -35 5 -39 0 -58 -19 -1812 -1773z"/>
<path d="M1590 5405 l-1581 -1581 3 -38 3 -38 1618 1617 c889 890 1617 1620
1617 1622 0 2 -18 3 -39 1 -39 -2 -88 -50 -1621 -1583z"/>
<path d="M1952 5049 c-1064 -1063 -1932 -1939 -1931 -1948 3 -66 -35 -102
1975 1908 1079 1079 1961 1961 1960 1961 -1 1 -17 3 -37 6 l-36 5 -1931 -1932z"/>
<path d="M2819 6936 c-2 -2 -19 -7 -38 -9 -30 -5 -211 -182 -1366 -1337 -1270
-1270 -1333 -1334 -1343 -1379 -6 -25 -9 -47 -8 -49 2 -2 2639 2632 2745 2742
19 20 30 36 25 36 -6 0 -13 -2 -15 -4z"/>
<path d="M2131 4869 c-1136 -1136 -2061 -2069 -2060 -2078 2 -63 -2 -66 1002
937 l988 987 -1 -45 c-1 -25 -1 -55 -1 -68 1 -18 45 22 220 195 121 120 217
220 215 222 -2 2 -31 4 -65 3 l-61 -1 946 947 c958 960 957 959 895 961 -9 1
-942 -924 -2078 -2060z"/>
<path d="M2311 4689 c-2010 -2010 -2170 -2173 -2165 -2197 4 -15 9 -29 11 -32
2 -2 431 423 953 945 l950 950 -2 -68 c-2 -37 -2 -67 -1 -67 4 0 803 799 803
802 0 2 -30 2 -67 1 l-68 -3 910 910 c500 500 907 911 905 913 -3 2 -17 7 -32
11 -24 5 -186 -154 -2197 -2165z"/>
<path d="M2285 6783 c-57 -22 -105 -68 -1052 -1015 -966 -966 -993 -995 -1017
-1056 -20 -49 -22 -61 -9 -50 29 24 2144 2141 2141 2143 -2 1 -30 -9 -63 -22z"/>
<path d="M2492 4507 c-2257 -2257 -2262 -2262 -2250 -2290 l13 -27 903 903
c786 785 903 898 902 872 -1 -16 -2 -47 -1 -68 l1 -38 475 477 476 478 -2 64
-2 64 902 902 c726 726 899 904 885 910 -11 3 -24 8 -29 11 -6 3 -1028 -1013
-2273 -2258z"/>
<path d="M2667 4328 l-2329 -2330 13 -30 12 -30 841 841 c463 463 844 841 848
841 4 0 7 -19 7 -42 -1 -24 -1 -50 0 -59 1 -10 198 180 476 458 l474 475 -2
65 -2 66 1027 1025 c1016 1015 1026 1026 1001 1039 -14 7 -28 13 -32 12 -3 0
-1054 -1049 -2334 -2331z"/>
<path d="M2846 4144 l-2385 -2386 16 -25 16 -25 789 789 c786 786 788 788 789
750 1 -20 3 -41 4 -47 1 -5 3 -17 4 -25 0 -8 210 195 466 452 l465 466 0 66 0
66 1140 1140 c1006 1006 1138 1141 1123 1153 -9 6 -22 12 -29 12 -7 0 -1086
-1074 -2398 -2386z"/>
<path d="M1541 6400 c-98 -68 -168 -132 -488 -452 -308 -307 -386 -391 -442
-473 -37 -55 -73 -110 -80 -122 -6 -13 245 234 559 548 313 314 570 572 570
575 0 7 0 6 -119 -76z"/>
<path d="M3030 3970 l-2431 -2430 17 -26 17 -26 742 742 742 742 14 -53 14
-52 433 433 432 433 0 66 0 66 489 489 490 490 3 -62 3 -62 140 139 c186 183
176 166 98 165 l-65 -1 672 672 672 672 -26 16 -25 17 -2431 -2430z"/>
<path d="M3206 3787 l-2454 -2453 19 -25 19 -24 704 705 c387 387 708 706 713
707 4 2 16 -16 26 -39 l17 -42 380 379 380 380 0 65 0 65 489 489 490 490 3
-62 3 -62 333 333 333 333 -66 -1 -66 -2 23 25 c13 13 280 281 593 594 536
536 569 570 551 584 -11 7 -23 14 -28 14 -4 0 -1112 -1104 -2462 -2453z"/>
<path d="M3386 3609 l-2469 -2470 21 -22 22 -22 692 692 691 691 20 -26 c11
-15 24 -31 29 -37 5 -6 145 127 352 334 l344 344 -21 44 -21 44 469 469 470
470 5 -60 5 -60 474 474 c446 445 474 476 475 510 1 34 -1 36 -29 36 -27 0 20
50 480 510 504 504 509 509 490 530 -10 11 -21 20 -24 19 -3 0 -1117 -1112
-2475 -2470z"/>
<path d="M3565 3430 l-2470 -2470 21 -21 22 -21 688 685 688 686 33 -25 c17
-13 35 -24 40 -24 4 0 158 150 341 333 l334 334 -37 29 -37 30 401 400 400
399 3 -62 3 -63 467 468 c257 257 470 470 473 473 3 4 7 36 8 72 l2 67 569
570 c556 558 568 571 551 590 -10 11 -21 20 -24 20 -3 0 -1117 -1112 -2476
-2470z"/>
<path d="M3745 3250 c-2315 -2316 -2459 -2462 -2441 -2475 11 -8 23 -15 28
-15 4 0 321 313 703 695 l694 694 43 -24 44 -24 374 374 c206 206 368 375 360
376 -8 1 -34 2 -58 4 -23 1 -44 4 -46 6 -1 2 121 127 271 277 l274 274 -5 -74
-6 -73 481 482 482 481 -1 67 -1 67 653 652 c635 633 653 652 638 674 -8 12
-17 22 -21 22 -3 0 -1113 -1107 -2466 -2460z"/>
<path d="M3927 3072 l-2439 -2439 26 -16 26 -17 721 721 c670 670 723 720 747
714 15 -4 41 -9 57 -11 28 -4 87 53 952 918 l922 923 4 71 3 71 726 724 726
725 -14 27 c-8 15 -16 27 -17 27 -1 0 -1099 -1097 -2440 -2438z"/>
<path d="M4106 2891 l-2399 -2399 28 -14 27 -15 760 759 760 759 65 -2 65 -2
765 765 764 764 1 68 1 68 798 800 c796 798 798 800 782 824 -8 13 -16 24 -17
24 0 0 -1081 -1080 -2400 -2399z"/>
<path d="M4282 2707 c-2304 -2304 -2343 -2343 -2317 -2355 14 -7 28 -12 30
-12 3 0 372 369 822 819 l818 819 75 7 75 7 565 564 c493 492 566 569 568 597
2 18 4 41 7 52 2 11 4 30 4 42 1 16 252 274 866 888 476 476 865 868 865 871
0 11 -21 44 -28 44 -4 0 -1061 -1054 -2350 -2343z"/>
<path d="M4467 2532 c-2259 -2259 -2278 -2278 -2251 -2290 21 -10 29 -10 42 0
8 7 421 419 916 915 l902 902 73 31 c139 57 179 87 374 279 197 195 223 229
287 380 l32 75 961 963 c657 658 961 969 959 981 -2 9 -7 23 -11 29 -4 8 -840
-821 -2284 -2265z"/>
<path d="M4645 2350 c-1204 -1204 -2187 -2191 -2185 -2193 3 -2 17 -7 31 -11
25 -5 191 158 2198 2166 1427 1426 2170 2176 2166 2185 -3 8 -5 21 -5 29 0 8
-3 14 -8 14 -4 0 -992 -985 -2197 -2190z"/>
<path d="M4825 2170 c-1150 -1150 -2085 -2090 -2080 -2091 6 0 22 -3 36 -5 24
-4 245 215 2088 2057 1133 1134 2061 2069 2060 2078 0 9 -4 24 -7 33 -6 14
-454 -429 -2097 -2072z"/>
<path d="M4999 1989 c-1076 -1078 -1949 -1959 -1940 -1959 9 0 25 -3 37 -6 17
-4 358 332 1952 1926 1063 1063 1932 1937 1932 1944 0 21 -12 56 -19 55 -3 -1
-886 -883 -1962 -1960z"/>
<path d="M5187 1813 l-1808 -1808 37 -3 38 -3 1773 1774 1774 1773 -3 38 -3
37 -1808 -1808z"/>
<path d="M5366 1634 l-1618 -1619 38 -3 38 -3 1578 1578 c868 868 1581 1588
1584 1599 24 91 36 103 -1620 -1552z"/>
<path d="M5552 1459 c-760 -760 -1382 -1385 -1382 -1389 0 -5 19 -4 43 1 39 9
144 112 1374 1342 1267 1266 1333 1333 1342 1377 5 24 8 46 7 47 -2 2 -624
-619 -1384 -1378z"/>
<path d="M5726 1274 c-592 -592 -1076 -1078 -1076 -1079 0 -2 28 7 63 21 60
24 94 56 1050 1012 544 543 992 994 997 1003 14 24 50 119 46 119 -2 0 -488
-484 -1080 -1076z"/>
<path d="M5905 1094 c-312 -312 -560 -564 -551 -561 9 4 57 34 108 68 76 50
165 133 474 442 367 365 409 412 519 580 13 20 23 37 20 37 -2 0 -259 -255
-570 -566z"/>
</g>
</svg>
